<?xml version="1.0" encoding="utf-8"?>
<!-- Generator: Adobe Illustrator 17.1.0, SVG Export Plug-In . SVG Version: 6.00 Build 0)  -->
<!DOCTYPE svg PUBLIC "-//W3C//DTD SVG 1.1//EN" "http://www.w3.org/Graphics/SVG/1.1/DTD/svg11.dtd">
<svg version="1.1" id="Layer_1" xmlns="http://www.w3.org/2000/svg" xmlns:xlink="http://www.w3.org/1999/xlink" x="0px" y="0px"
	 viewBox="0 0 60 60" enable-background="new 0 0 60 60" xml:space="preserve">
<g>
	<path fill="#FFFFFF" d="M46,43.7c0.1,0.1,0.1,0.1,0.2,0.2s0.1,0.2,0.1,0.3s0,0.2-0.1,0.3s-0.1,0.2-0.2,0.2c0,0-0.1,0.1-0.1,0.1
		s-0.1,0.1-0.1,0.1s-0.1,0-0.1,0s-0.1,0-0.1,0s-0.1,0-0.1,0s-0.1,0-0.1,0s-0.1,0-0.1-0.1S45,44.8,45,44.7L31.2,31L17.5,44.7
		c0,0-0.1,0.1-0.1,0.1s-0.1,0.1-0.1,0.1s-0.1,0-0.1,0s-0.1,0-0.1,0s-0.1,0-0.1,0s-0.1,0-0.1,0s-0.1,0-0.1-0.1s-0.1-0.1-0.1-0.1
		c-0.1-0.1-0.1-0.1-0.2-0.2s-0.1-0.2-0.1-0.3s0-0.2,0.1-0.3s0.1-0.2,0.2-0.2l13.7-13.7l-13-13c-0.1-0.1-0.1-0.2-0.2-0.3
		S17,16.5,17,16.4s0-0.2,0.1-0.3s0.1-0.2,0.2-0.3c0.1-0.1,0.2-0.1,0.3-0.2s0.2-0.1,0.3-0.1s0.2,0,0.3,0.1s0.2,0.1,0.3,0.2l13,13
		l13-13c0.1-0.1,0.2-0.1,0.3-0.2s0.2-0.1,0.3-0.1s0.2,0,0.3,0.1s0.2,0.1,0.3,0.2c0.1,0.1,0.1,0.2,0.2,0.3s0.1,0.2,0.1,0.3
		s0,0.2-0.1,0.3s-0.1,0.2-0.2,0.3l-13,13L46,43.7z"/>
</g>
</svg>
