<?xml version="1.0" encoding="utf-8"?>
<!-- Generator: Adobe Illustrator 18.1.0, SVG Export Plug-In . SVG Version: 6.00 Build 0)  -->
<!DOCTYPE svg PUBLIC "-//W3C//DTD SVG 1.1//EN" "http://www.w3.org/Graphics/SVG/1.1/DTD/svg11.dtd">
<svg version="1.1" id="Layer_1" xmlns="http://www.w3.org/2000/svg" xmlns:xlink="http://www.w3.org/1999/xlink" x="0px" y="0px"
	 viewBox="0 0 230 48" enable-background="new 0 0 230 48" xml:space="preserve">
<g>
	<g>
		<path fill="#615850" d="M4.7,32c0.4,3.6,2.7,4.8,5.2,4.8c1.4,0,3.1-0.4,4.4-1l0.3,2.5c-1.1,0.5-2.8,1.1-5,1.1
			c-5.3,0-8.1-3.6-8.1-7.8c0-4.2,2.7-7.7,7.2-7.7c3.7,0,6.5,2.4,6.5,6.4c0,0.5,0,1.1-0.2,1.7H4.7z M4.8,29.9h7.2
			c0-1.8-1-3.3-3.3-3.3C6.5,26.7,5.3,27.9,4.8,29.9z"/>
		<path fill="#615850" d="M22.7,39.5h-1c-2.8,0-3.8-1.8-3.8-3.7V16.6h3v17.7c0,2.5,0.3,2.8,2.2,2.8L22.7,39.5z"/>
		<path fill="#615850" d="M27.4,32c0.4,3.6,2.7,4.8,5.2,4.8c1.4,0,3.1-0.4,4.4-1l0.3,2.5c-1.1,0.5-2.8,1.1-5,1.1
			c-5.3,0-8.1-3.6-8.1-7.8c0-4.2,2.7-7.7,7.2-7.7c3.7,0,6.5,2.4,6.5,6.4c0,0.5,0,1.1-0.2,1.7H27.4z M27.6,29.9h7.2
			c0-1.8-1-3.3-3.3-3.3C29.3,26.7,28.1,27.9,27.6,29.9z"/>
		<path fill="#615850" d="M44.7,26.8v12.4h-3.1V26.8h-2.4l0.3-2.4h2.1v-3.7c0-2.2,1.2-4,3.5-4c1.8,0,2.4,0.1,3.2,0.3l-0.4,2.6
			c-0.7-0.2-1.3-0.2-1.7-0.2c-1.3,0-1.5,0.6-1.5,3.2v1.9h3.7v2.4H44.7z"/>
		<path fill="#615850" d="M50.8,21.3v-3.3h3.1v3.3H50.8z M50.8,39.2V24.3h3.1v14.9H50.8z"/>
		<path fill="#615850" d="M67.7,39.2V31c0-3-1-4.4-3.6-4.4c-1.5,0-2.9,0.5-3.6,1.7v10.8h-3.1V24.3h2.6l0.2,1.3
			c1.4-1.2,2.9-1.6,4.3-1.6c4.5,0,6.2,2.8,6.2,7v8.1H67.7z"/>
		<path fill="#615850" d="M81.7,39.5h-2.5c-2.8,0-3.9-1.8-3.9-3.7v-9h-2.4l0.3-2.4h2.1v-3.6l3.1-0.3v3.9H82v2.4h-3.7v7.4
			c0,2.6,0.2,2.8,2.8,2.8h0.8L81.7,39.5z"/>
	</g>
	<g>
		<path fill="#615850" d="M145.4,39.1l-0.2-1.5c-1.1,1.2-2.8,1.8-4.2,1.8c-4.1,0-6.9-3.4-6.9-7.7c0-4.1,2.6-7.7,6.9-7.7
			c1.4,0,3,0.4,4.2,1.6v-9h3v22.6H145.4z M137.2,31.7c0,2.9,1.5,5.1,4,5.1c2.3,0,4.2-1.6,4.2-5c0-3.3-2-5.2-4.2-5.2
			C138.7,26.6,137.2,28.8,137.2,31.7z"/>
		<path fill="#615850" d="M154.1,32c0.4,3.6,2.7,4.8,5.2,4.8c1.4,0,3.1-0.4,4.4-1l0.3,2.5c-1.1,0.5-2.8,1.1-5,1.1
			c-5.3,0-8.1-3.6-8.1-7.8c0-4.2,2.7-7.7,7.2-7.7c3.7,0,6.5,2.4,6.5,6.4c0,0.5,0,1.1-0.2,1.7H154.1z M154.3,29.9h7.2
			c0-1.8-1-3.3-3.3-3.3C155.9,26.6,154.8,27.9,154.3,29.9z"/>
		<path fill="#615850" d="M166.5,38.2l0.3-2.8c0.7,0.6,2.6,1.5,4.6,1.5c1.9,0,2.7-0.8,2.7-1.8c0-1.4-1.6-2-2.9-2.4
			c-2.1-0.6-4.5-1.3-4.5-4.3c0-2.2,1.4-4.6,5.5-4.6c2,0,3.4,0.5,4.3,1l-0.3,2.7c-0.8-0.7-2.1-1.4-3.8-1.4c-1.6,0-2.7,0.6-2.7,1.9
			c0,1.4,1.3,1.7,3.4,2.4c1.7,0.5,4.2,1.4,4.2,4.5c0,1.9-1,4.4-5.7,4.4C169.1,39.4,167.3,38.7,166.5,38.2z"/>
		<path fill="#615850" d="M180,21.3V18h3.1v3.3H180z M180,39.1V24.3h3.1v14.9H180z"/>
		<path fill="#615850" d="M185.6,42.2c0-1,0.5-2.5,2.6-3.3c-1.1-0.6-1.4-1.3-1.4-2c0-0.7,0.4-1.5,1.7-2.1c-1.9-1.4-2.5-3.2-2.5-4.9
			c0-3.2,2.1-5.9,6.1-5.9c1.4,0,2.6,0.3,3.6,1c0.8-0.4,2-0.8,3.5-0.8h0.5l-0.3,2h-0.9c-0.2,0-0.9,0.1-1.4,0.2
			c0.9,1.2,1.2,2.4,1.2,3.5c0,3.1-2.1,5.9-6,5.9c-0.7,0-1.4-0.1-2-0.2c-0.3,0.2-0.6,0.5-0.6,0.8c0,0.8,1.1,1,4.3,1.4
			c2.3,0.4,6,1.1,6,4.3c0,2.6-2.5,4.7-7.4,4.7C187.5,46.7,185.6,44.3,185.6,42.2z M190.7,39.6c-1.3,0.4-2.3,1.4-2.3,2.4
			c0,1.3,1.5,2.3,4.2,2.3c2.8,0,4.4-1.1,4.4-2.3c0-1.2-1.5-1.8-3.9-2.2C192.8,39.9,191.1,39.7,190.7,39.6z M188.8,29.8
			c0,2.2,1.3,3.6,3.3,3.6c2.1,0,3.2-1.5,3.2-3.6c0-2.2-1.3-3.4-3.3-3.4C189.9,26.3,188.8,27.8,188.8,29.8z"/>
		<path fill="#615850" d="M212,39.1V31c0-3-1-4.4-3.6-4.4c-1.5,0-2.9,0.5-3.6,1.7v10.8h-3.1V24.3h2.6l0.2,1.3
			c1.4-1.2,2.9-1.6,4.3-1.6c4.5,0,6.2,2.8,6.2,7v8.1H212z"/>
		<path fill="#615850" d="M217.7,38.2l0.3-2.8c0.7,0.6,2.6,1.5,4.6,1.5c1.9,0,2.7-0.8,2.7-1.8c0-1.4-1.6-2-2.9-2.4
			c-2-0.6-4.5-1.3-4.5-4.3c0-2.2,1.4-4.6,5.5-4.6c2,0,3.4,0.5,4.3,1l-0.3,2.7c-0.8-0.7-2.1-1.4-3.8-1.4c-1.6,0-2.7,0.6-2.7,1.9
			c0,1.4,1.3,1.7,3.4,2.4c1.7,0.5,4.2,1.4,4.2,4.5c0,1.9-1,4.4-5.7,4.4C220.2,39.4,218.5,38.7,217.7,38.2z"/>
	</g>
	<g>
		<path fill="none" d="M108.1,29.8c0.2,1.3,0.5,2.7,1.7,3.1c0.3-1.6,3-1,2.3-3.6C110.5,28.5,109.7,29.1,108.1,29.8z"/>
		<path fill="none" d="M131.6,5.2c-2.4-0.2-3.5,0.8-3.9,2.5l0,0.1c0,0,0,0.1,0,0.1c0,0.2,0.1,0.4,0.3,0.4l0.1,0
			c1.1,0.6,3.5,0.5,4.2-0.3C132.6,6.5,131.3,6.6,131.6,5.2z"/>
		<path fill="#F15A22" d="M124.1,6.9c-5.9-2.3-9.6,1.4-12.6,4c-19.2-2.6-17,13.3-18.8,27.4l0,0c0,0.3,0.2,0.5,0.5,0.5l0,0
			c2.4-0.1,3.7,0.8,6.1,0.7l0,0c0.3,0,0.5-0.2,0.5-0.5c0-0.1,0-0.1,0-0.2l0,0c-1.1-3.4-1.3-8,1.4-9.9l0.1-0.1
			c0.1-0.1,0.2-0.1,0.3-0.1c0.2,0,0.4,0.1,0.4,0.3l0,0.1c1.3,2.4,1.5,5.9,1.4,9.8l0,0c0,0.3,0.2,0.5,0.5,0.5h0c2.7,0,5.5,0,8.2,0
			h0.1c0.2,0,0.4-0.1,0.5-0.3l0,0c1.3-2.9,3.4-5,5.1-7.5l0.1-0.1c0.1-0.1,0.2-0.2,0.4-0.2c0.2,0,0.4,0.1,0.5,0.3l0,0.1
			c0.8,1.7,1,4.8,0.3,6.7l0,0.1c0,0.1,0,0.1,0,0.2c0,0.3,0.2,0.5,0.4,0.5c0,0,0,0,0.1,0l0,0c1.2,0.1,3.2-0.5,5.1-0.3l0.1,0
			c0.2,0,0.4-0.1,0.5-0.3l0-0.1c1.6-5.6-4.1-12.1-3.6-15.5c0.7-5,11.1-6.5,13.7-10.8C141.1,3,127.1-4,124.1,6.9z M109.8,32.8
			c-1.1-0.4-1.5-1.7-1.7-3.1c1.6-0.7,2.4-1.2,4-0.6C112.8,31.8,110.1,31.2,109.8,32.8z M132.1,8.1c-0.7,0.7-3.1,0.8-4.2,0.3l-0.1,0
			c-0.2-0.1-0.3-0.3-0.3-0.4c0,0,0-0.1,0-0.1l0-0.1c0.4-1.7,1.6-2.7,3.9-2.5C131.3,6.6,132.6,6.5,132.1,8.1z"/>
	</g>
</g>
</svg>
