<?xml version="1.0" encoding="utf-8"?>
<!-- Generator: Adobe Illustrator 18.1.0, SVG Export Plug-In . SVG Version: 6.00 Build 0)  -->
<!DOCTYPE svg PUBLIC "-//W3C//DTD SVG 1.1//EN" "http://www.w3.org/Graphics/SVG/1.1/DTD/svg11.dtd">
<svg version="1.1" id="Layer_1" xmlns="http://www.w3.org/2000/svg" xmlns:xlink="http://www.w3.org/1999/xlink" x="0px" y="0px"
	 viewBox="0 0 120 80" enable-background="new 0 0 120 80" xml:space="preserve">
<g>
	<g>
		<path fill="#FFFFFF" d="M31.3,61.5L31.3,61.5c0.6-0.8,0.8-1.7,0.8-2.6c0-1-0.4-1.9-1.1-2.7c-0.8-0.8-1.7-1.1-2.7-1.1H25l0.2-0.4
			c0.5-1,0.7-2,0.7-3c0-1.2-0.2-2.2-0.5-2.9c-0.3-0.7-0.9-1.2-1.5-1.5c-0.7-0.3-1.5-0.5-2.3-0.5c-0.5,0-0.9,0.2-1.3,0.5
			c-0.4,0.4-0.7,1-0.9,1.6c-0.2,0.7-0.4,1.4-0.5,2c-0.1,0.7-0.3,1.2-0.6,1.5c-0.5,0.6-1.1,1.2-1.7,2c-1.1,1.4-1.8,2.3-2.3,2.5
			l-0.1,0H9.7c-0.5,0-0.9,0.2-1.3,0.5c-0.4,0.4-0.5,0.8-0.5,1.3v10.3c0,0.5,0.2,0.9,0.5,1.3c0.4,0.4,0.8,0.5,1.3,0.5h4.6
			c0.2,0,0.6,0.1,2.3,0.7c1.3,0.5,2.5,0.8,3.5,1c1,0.2,2,0.4,3,0.4h2.1c1.4,0,2.6-0.4,3.5-1.2c0.9-0.8,1.3-1.9,1.3-3.3l0-0.1
			l0.1-0.1c0.6-0.8,0.9-1.7,0.9-2.7c0-0.2,0-0.4,0-0.7l0-0.1l0-0.1c0.4-0.7,0.6-1.4,0.6-2.2c0-0.4,0-0.7-0.1-1L31.3,61.5z
			 M11.6,69.1c-0.3,0.3-0.6,0.4-0.9,0.4c-0.3,0-0.6-0.1-0.9-0.4c-0.3-0.3-0.4-0.6-0.4-0.9c0-0.3,0.1-0.6,0.4-0.9
			c0.5-0.5,1.3-0.5,1.8,0c0.3,0.2,0.4,0.6,0.4,0.9C12,68.6,11.9,68.9,11.6,69.1z M30.6,60.3c-0.2,0.4-0.4,0.7-0.7,0.8
			c0.1,0.2,0.2,0.3,0.2,0.6c0.1,0.4,0.2,0.7,0.2,1c0,0.8-0.3,1.5-0.8,2.1c0.2,0.3,0.2,0.7,0.2,1.1c0,0.4-0.1,0.9-0.3,1.3
			c-0.2,0.4-0.4,0.7-0.8,0.9c0,0.3,0.1,0.6,0.1,0.8c0,1.4-0.6,3.1-3.5,3.1h-2c-1.5,0-3.5-0.4-5.8-1.2c-0.1,0-0.2-0.1-0.5-0.2
			l-0.6-0.2c-0.1,0-0.3-0.1-0.6-0.2c-0.3-0.1-0.5-0.1-0.6-0.2c-0.2,0-0.3-0.1-0.5-0.1c-0.2,0-0.4,0-0.5,0h-0.8V58.5H14
			c0.1,0,0.3,0,0.5-0.1c0.2-0.1,0.4-0.2,0.6-0.4c0.2-0.2,0.4-0.4,0.6-0.6c0.2-0.2,0.4-0.4,0.7-0.7c0.2-0.3,0.4-0.5,0.6-0.7
			c0.1-0.2,0.3-0.4,0.5-0.7l0.4-0.5c0.6-0.8,1.1-1.3,1.3-1.6c0.4-0.4,0.7-1,0.9-1.7c0.2-0.7,0.4-1.5,0.5-2.1
			c0.1-0.7,0.4-1.2,0.7-1.6l0.1-0.1h0.1c1.2,0,2,0.3,2.4,0.9c0.4,0.6,0.6,1.4,0.6,2.6c0,0.7-0.3,1.6-0.8,2.8
			c-0.5,0.9-0.7,1.7-0.8,2.3h5.6c0.6,0,1.2,0.2,1.7,0.7c0.5,0.5,0.7,1,0.7,1.7C31,59.2,30.8,59.7,30.6,60.3z"/>
	</g>
	<path fill="#FFFFFF" d="M7.7,27.7c2.3,1.5,4.9,2.3,7.8,2.3c1.8,0,3.5-0.3,5-0.9c1.6-0.6,2.9-1.3,4-2.3c1.1-1,2.1-2,2.9-3.3
		c0.8-1.2,1.4-2.5,1.8-3.9c0.4-1.3,0.6-2.7,0.6-4.1c0-0.3,0-0.5,0-0.7c1-0.7,1.8-1.6,2.5-2.6c-1,0.4-1.9,0.7-2.9,0.8
		c1.1-0.7,1.8-1.6,2.2-2.8c-1,0.6-2.1,1-3.2,1.2c-1-1.1-2.2-1.6-3.7-1.6c-1.4,0-2.6,0.5-3.6,1.5s-1.5,2.2-1.5,3.6
		c0,0.4,0,0.8,0.1,1.2c-2.1-0.1-4-0.6-5.8-1.6c-1.8-0.9-3.3-2.2-4.6-3.7c-0.5,0.8-0.7,1.6-0.7,2.5c0,0.9,0.2,1.7,0.6,2.4
		c0.4,0.7,1,1.3,1.6,1.8c-0.8,0-1.6-0.2-2.3-0.6v0.1c0,1.2,0.4,2.3,1.1,3.2c0.8,0.9,1.7,1.5,2.9,1.7c-0.4,0.1-0.9,0.2-1.3,0.2
		c-0.3,0-0.6,0-1-0.1c0.3,1,0.9,1.8,1.8,2.5c0.9,0.7,1.8,1,2.9,1c-1.8,1.4-3.9,2.2-6.3,2.2C8.5,27.8,8.1,27.8,7.7,27.7z"/>
	<path fill="#FFFFFF" d="M56.9,32h5V20h3.3l0.4-4.1h-3.7v-2.1c0-0.3,0-0.6,0-0.7c0-0.2,0.1-0.3,0.2-0.5c0.1-0.2,0.3-0.3,0.5-0.3
		c0.2-0.1,0.5-0.1,0.9-0.1h2.1V8h-3.3c-1.9,0-3.3,0.5-4.1,1.4c-0.8,0.9-1.3,2.2-1.3,4v2.5h-2.5V20h2.5V32z"/>
	<path d="M67.4,57.4c-0.1-0.1-0.2-0.1-0.3-0.2c-0.1,0-0.2-0.1-0.3-0.1l0,0c-0.1,0-0.2,0-0.3,0.1c-0.1,0-0.2,0.1-0.3,0.2L60,63.6
		l-6.3-6.2c-0.1-0.1-0.2-0.2-0.3-0.2c-0.1,0-0.2,0-0.3-0.1l0,0c-0.1,0-0.2,0-0.3,0.1c-0.1,0-0.2,0.1-0.3,0.2l0,0l-0.1,0.1l-0.1,0.1
		l0,0.2l0,0.2l0,0.1l0,0.2l0.1,0.1l0.1,0.1l6.8,6.9c0.1,0.1,0.2,0.1,0.3,0.2c0.1,0,0.2,0.1,0.3,0.1l0,0c0.1,0,0.2,0,0.3-0.1
		c0.1,0,0.2-0.1,0.3-0.2l6.8-6.8c0.1-0.1,0.1-0.2,0.2-0.3c0-0.1,0.1-0.2,0.1-0.3s0-0.2-0.1-0.3C67.6,57.6,67.5,57.5,67.4,57.4z
		 M60,65.5L60,65.5L60,65.5L60,65.5z"/>
	<path d="M72.1,55c-0.3-0.8-0.7-1.5-1.2-2.3c-0.5-0.7-1-1.4-1.6-2c-0.6-0.6-1.3-1.2-2-1.7c-0.7-0.5-1.5-0.9-2.3-1.2
		c-0.8-0.3-1.6-0.6-2.5-0.7c-0.8-0.2-1.7-0.2-2.6-0.3c-0.9,0-1.7,0.1-2.6,0.3c-0.8,0.2-1.7,0.4-2.4,0.7c-0.8,0.3-1.5,0.7-2.3,1.2
		c-0.7,0.5-1.4,1-2,1.7c-0.6,0.6-1.2,1.3-1.6,2c-0.5,0.7-0.9,1.5-1.2,2.3c-0.3,0.8-0.6,1.6-0.7,2.4c-0.2,0.8-0.2,1.7-0.2,2.6
		c0,0.9,0.1,1.7,0.2,2.6c0.2,0.8,0.4,1.7,0.7,2.4c0.3,0.8,0.7,1.5,1.2,2.3c0.5,0.7,1,1.4,1.6,2c0.6,0.6,1.3,1.2,2,1.6
		c0.7,0.5,1.5,0.9,2.3,1.2c0.8,0.3,1.6,0.6,2.4,0.7c0.8,0.2,1.6,0.2,2.5,0.2l0.1,0l0.1,0c0.8,0,1.6-0.1,2.4-0.2
		c0.8-0.2,1.7-0.4,2.4-0.7c0.8-0.3,1.5-0.7,2.3-1.2c0.7-0.5,1.4-1,2-1.6c0.6-0.6,1.2-1.3,1.6-2c0.5-0.7,0.9-1.5,1.2-2.3
		c0.3-0.8,0.6-1.6,0.7-2.4c0.2-0.8,0.3-1.7,0.3-2.6c0-0.9-0.1-1.7-0.3-2.6C72.7,56.6,72.5,55.8,72.1,55z M70.6,64.5
		c-0.6,1.4-1.4,2.6-2.5,3.7c-1,1-2.3,1.9-3.7,2.5c-1.4,0.6-2.9,0.9-4.5,0.9c-1.6,0-3.1-0.3-4.5-0.9c-1.4-0.6-2.6-1.4-3.7-2.5
		c-1-1-1.9-2.3-2.5-3.7c-0.6-1.4-0.9-2.9-0.9-4.5c0-1.6,0.3-3.1,0.9-4.5c0.6-1.4,1.4-2.6,2.5-3.7c1-1,2.3-1.9,3.7-2.5
		c1.4-0.6,2.9-0.9,4.4-0.9l0.1,0l0.1,0c1.6,0,3,0.3,4.4,0.9c1.4,0.6,2.6,1.4,3.7,2.5c1,1,1.9,2.3,2.5,3.7c0.6,1.4,0.9,2.9,0.9,4.5
		C71.5,61.6,71.2,63.1,70.6,64.5z"/>
	<path d="M88.5,62.6c0.1,0.1,0.2,0.1,0.3,0.2c0.1,0,0.2,0.1,0.3,0.1l0,0c0.1,0,0.2,0,0.3-0.1c0.1,0,0.2-0.1,0.3-0.2l6.3-6.3l6.3,6.2
		c0.1,0.1,0.2,0.2,0.3,0.2c0.1,0,0.2,0,0.3,0.1l0,0c0.1,0,0.2,0,0.3-0.1c0.1,0,0.2-0.1,0.3-0.2l0,0l0.1-0.1l0.1-0.1l0-0.2l0-0.2
		l0-0.1l0-0.2l-0.1-0.1l-0.1-0.1l-6.8-6.9c-0.1-0.1-0.2-0.1-0.3-0.2c-0.1,0-0.2-0.1-0.3-0.1l0,0c-0.1,0-0.2,0-0.3,0.1
		c-0.1,0-0.2,0.1-0.3,0.2l-6.8,6.8c-0.1,0.1-0.1,0.2-0.2,0.3c0,0.1-0.1,0.2-0.1,0.3s0,0.2,0.1,0.3C88.3,62.4,88.4,62.5,88.5,62.6z
		 M95.9,54.5L95.9,54.5L95.9,54.5L95.9,54.5z"/>
	<path d="M83.8,65c0.3,0.8,0.7,1.5,1.2,2.3c0.5,0.7,1,1.4,1.6,2c0.6,0.6,1.3,1.2,2,1.7c0.7,0.5,1.5,0.9,2.3,1.2
		c0.8,0.3,1.6,0.6,2.5,0.7c0.8,0.2,1.7,0.2,2.6,0.3c0.9,0,1.7-0.1,2.6-0.3c0.8-0.2,1.7-0.4,2.4-0.7c0.8-0.3,1.5-0.7,2.3-1.2
		c0.7-0.5,1.4-1,2-1.7c0.6-0.6,1.2-1.3,1.6-2c0.5-0.7,0.9-1.5,1.2-2.3c0.3-0.8,0.6-1.6,0.7-2.4c0.2-0.8,0.2-1.7,0.2-2.6
		c0-0.9-0.1-1.7-0.2-2.6c-0.2-0.8-0.4-1.7-0.7-2.4c-0.3-0.8-0.7-1.5-1.2-2.3c-0.5-0.7-1-1.4-1.6-2c-0.6-0.6-1.3-1.2-2-1.6
		c-0.7-0.5-1.5-0.9-2.3-1.2c-0.8-0.3-1.6-0.6-2.4-0.7c-0.8-0.2-1.6-0.2-2.5-0.2l-0.1,0l-0.1,0c-0.8,0-1.6,0.1-2.4,0.2
		c-0.8,0.2-1.7,0.4-2.4,0.7c-0.8,0.3-1.5,0.7-2.3,1.2c-0.7,0.5-1.4,1-2,1.6c-0.6,0.6-1.2,1.3-1.6,2c-0.5,0.7-0.9,1.5-1.2,2.3
		c-0.3,0.8-0.6,1.6-0.7,2.4c-0.2,0.8-0.3,1.7-0.3,2.6c0,0.9,0.1,1.7,0.3,2.6C83.2,63.4,83.4,64.2,83.8,65z M85.3,55.5
		c0.6-1.4,1.4-2.6,2.5-3.7c1-1,2.3-1.9,3.7-2.5c1.4-0.6,2.9-0.9,4.5-0.9c1.6,0,3.1,0.3,4.5,0.9c1.4,0.6,2.6,1.4,3.7,2.5
		c1,1,1.9,2.3,2.5,3.7c0.6,1.4,0.9,2.9,0.9,4.5c0,1.6-0.3,3.1-0.9,4.5c-0.6,1.4-1.4,2.6-2.5,3.7c-1,1-2.3,1.9-3.7,2.5
		c-1.4,0.6-2.9,0.9-4.4,0.9l-0.1,0l-0.1,0c-1.6,0-3-0.3-4.4-0.9c-1.4-0.6-2.6-1.4-3.7-2.5c-1-1-1.9-2.3-2.5-3.7
		c-0.6-1.4-0.9-2.9-0.9-4.5C84.4,58.4,84.7,56.9,85.3,55.5z"/>
	<path fill="#FFFFFF" d="M111.6,24.1c-0.5-0.5-1-0.9-1.7-1.1c-0.6-0.3-1.3-0.4-2.1-0.4c-0.5,0-0.9,0.1-1.3,0.2
		c-0.4,0.1-0.8,0.3-1.2,0.5c-0.4,0.2-0.7,0.5-1,0.7c-0.3,0.3-0.6,0.6-0.8,0.9l-6.2-3.1c0-0.1,0.1-0.2,0.1-0.3c0-0.1,0.1-0.3,0.1-0.4
		c0-0.1,0-0.3,0.1-0.4c0-0.1,0-0.3,0-0.5c0-0.1,0-0.3,0-0.4c0-0.1,0-0.3-0.1-0.5c0-0.2-0.1-0.3-0.1-0.4c0-0.1-0.1-0.2-0.1-0.3
		l6.2-3.1c0.2,0.3,0.5,0.6,0.8,0.9c0.3,0.3,0.7,0.5,1,0.7c0.4,0.2,0.8,0.4,1.2,0.5c0.4,0.1,0.9,0.2,1.3,0.2c0.7,0,1.4-0.1,2.1-0.4
		c0.6-0.3,1.2-0.7,1.7-1.1c0.5-0.5,0.9-1,1.1-1.7c0.3-0.6,0.4-1.3,0.4-2.1c0-0.7-0.1-1.4-0.4-2.1c-0.3-0.6-0.7-1.2-1.1-1.7
		c-0.5-0.5-1-0.9-1.7-1.1c-0.6-0.3-1.3-0.4-2.1-0.4c-0.7,0-1.4,0.1-2.1,0.4c-0.6,0.3-1.2,0.7-1.7,1.1c-0.5,0.5-0.9,1-1.1,1.7
		c-0.3,0.6-0.4,1.3-0.4,2.1c0,0.2,0,0.3,0,0.5c0,0.2,0,0.3,0.1,0.4c0,0.1,0.1,0.3,0.1,0.4c0,0.1,0.1,0.2,0.1,0.3L96.6,17
		c-0.2-0.3-0.5-0.6-0.8-0.9c-0.3-0.3-0.7-0.5-1-0.7c-0.4-0.2-0.8-0.4-1.2-0.5c-0.4-0.1-0.9-0.2-1.3-0.2c-0.7,0-1.4,0.1-2.1,0.4
		c-0.6,0.3-1.2,0.7-1.7,1.1c-0.5,0.5-0.9,1.1-1.1,1.7c-0.3,0.6-0.4,1.3-0.4,2.1c0,0.7,0.1,1.4,0.4,2.1c0.3,0.6,0.7,1.2,1.1,1.7
		c0.5,0.5,1.1,0.9,1.7,1.1c0.6,0.3,1.3,0.4,2.1,0.4c0.5,0,0.9-0.1,1.3-0.2c0.4-0.1,0.8-0.3,1.2-0.5c0.4-0.2,0.7-0.5,1-0.7
		c0.3-0.3,0.6-0.6,0.8-0.9l6.2,3.1c0,0.1-0.1,0.2-0.1,0.3c0,0.1-0.1,0.3-0.1,0.4c0,0.1,0,0.3-0.1,0.4c0,0.2,0,0.3,0,0.5
		c0,0.7,0.1,1.4,0.4,2.1c0.3,0.6,0.7,1.2,1.1,1.7c0.5,0.5,1.1,0.9,1.7,1.1c0.6,0.3,1.3,0.4,2.1,0.4c0.7,0,1.4-0.1,2.1-0.4
		c0.6-0.3,1.2-0.7,1.7-1.1c0.5-0.5,0.9-1,1.1-1.7c0.3-0.6,0.4-1.3,0.4-2.1c0-0.7-0.1-1.4-0.4-2.1C112.4,25.1,112,24.5,111.6,24.1z
		 M104.3,10.7c0.2-0.5,0.5-0.9,0.8-1.2c0.3-0.3,0.7-0.6,1.2-0.8c0.5-0.2,1-0.3,1.5-0.3c0.5,0,1,0.1,1.5,0.3c0.5,0.2,0.9,0.5,1.2,0.8
		c0.3,0.3,0.6,0.7,0.8,1.2c0.2,0.5,0.3,0.9,0.3,1.5s-0.1,1-0.3,1.5c-0.2,0.5-0.5,0.9-0.8,1.2c-0.3,0.3-0.7,0.6-1.2,0.8
		c-0.9,0.4-2,0.4-2.9,0c-0.5-0.2-0.9-0.5-1.2-0.8c-0.3-0.3-0.6-0.7-0.8-1.2c-0.2-0.5-0.3-0.9-0.3-1.5S104.1,11.2,104.3,10.7z
		 M95.7,21.5c-0.2,0.5-0.5,0.9-0.8,1.2c-0.3,0.3-0.7,0.6-1.2,0.8c-0.9,0.4-2,0.4-2.9,0c-0.5-0.2-0.9-0.5-1.2-0.8
		c-0.3-0.3-0.6-0.7-0.8-1.2c-0.2-0.5-0.3-1-0.3-1.5c0-0.5,0.1-1,0.3-1.5c0.2-0.5,0.5-0.9,0.8-1.2c0.3-0.3,0.7-0.6,1.2-0.8
		c0.5-0.2,1-0.3,1.5-0.3c0.5,0,1,0.1,1.5,0.3c0.5,0.2,0.9,0.5,1.2,0.8c0.3,0.3,0.6,0.7,0.8,1.2c0.2,0.5,0.3,1,0.3,1.5
		C96,20.5,95.9,21,95.7,21.5z M111.3,29.3c-0.2,0.5-0.5,0.9-0.8,1.2c-0.3,0.3-0.7,0.6-1.2,0.8c-0.9,0.4-2,0.4-2.9,0
		c-0.5-0.2-0.9-0.5-1.2-0.8c-0.3-0.3-0.6-0.8-0.8-1.2c-0.2-0.5-0.3-0.9-0.3-1.5c0-0.5,0.1-1,0.3-1.5c0.2-0.5,0.5-0.9,0.8-1.2
		c0.3-0.3,0.7-0.6,1.2-0.8c0.5-0.2,1-0.3,1.5-0.3c0.5,0,1,0.1,1.5,0.3c0.5,0.2,0.9,0.5,1.2,0.8c0.3,0.3,0.6,0.7,0.8,1.2
		c0.2,0.5,0.3,1,0.3,1.5C111.6,28.3,111.5,28.8,111.3,29.3z"/>
</g>
</svg>
